<svg xmlns="http://www.w3.org/2000/svg" xmlns:svg="http://www.w3.org/2000/svg" id="svg7539" width="50" height="20" version="1.1"><defs id="defs7541"><linearGradient id="linearGradient4695-1-4-3-5-0-6"><stop id="stop4697-9-9-7-0-1-5" style="stop-color:#000;stop-opacity:1" offset="0"/><stop id="stop4699-5-8-9-0-4-0" style="stop-color:#000;stop-opacity:0" offset="1"/></linearGradient><linearGradient id="linearGradient3768-6"><stop style="stop-color:#0f0f0f;stop-opacity:1" id="stop3770-0" offset="0"/><stop id="stop3778-6" offset=".078" style="stop-color:#171717;stop-opacity:1"/><stop style="stop-color:#171717;stop-opacity:1" id="stop3774-2" offset=".974"/><stop style="stop-color:#1b1b1b;stop-opacity:1" id="stop3776-2" offset="1"/></linearGradient><linearGradient id="linearGradient3969-0-4"><stop style="stop-color:#353537;stop-opacity:1" id="stop3971-2-6" offset="0"/><stop style="stop-color:#4d4f52;stop-opacity:1" id="stop3973-0-1" offset="1"/></linearGradient><linearGradient id="linearGradient3938"><stop id="stop3940" offset="0" style="stop-color:#fff;stop-opacity:0"/><stop id="stop3942" offset="1" style="stop-color:#fff;stop-opacity:.54901963"/></linearGradient><linearGradient id="linearGradient6523"><stop id="stop6525" offset="0" style="stop-color:#1a1a1a;stop-opacity:1"/><stop id="stop6527" offset="1" style="stop-color:#1a1a1a;stop-opacity:0"/></linearGradient><linearGradient id="linearGradient3938-6"><stop id="stop3940-4" offset="0" style="stop-color:#bebebe;stop-opacity:1"/><stop id="stop3942-8" offset="1" style="stop-color:#fff;stop-opacity:1"/></linearGradient></defs><metadata id="metadata7544"/><g id="layer1" transform="translate(-120,87.999997)"><g transform="translate(-886,-418)" style="display:inline;opacity:1" id="switch"><g id="layer1-9" transform="matrix(-1,0,0,1,1177,420)"><g style="display:inline" id="switch-active-2" transform="translate(120,-116.99998)"><g id="g3900-12" transform="translate(0,-1004.3622)"><rect style="display:inline;opacity:0;fill:#434343;fill-opacity:1;stroke:none;stroke-width:1;stroke-linecap:butt;stroke-linejoin:miter;stroke-miterlimit:4;stroke-dasharray:none;stroke-dashoffset:0;stroke-opacity:1" id="rect5465-3-32" width="52" height="24" x="0" y="1029.362"/><rect style="fill:#cfcfcf;fill-opacity:1;fill-rule:nonzero;stroke:none" id="rect2987-07" width="50" height="20" x="1" y="1031.362" rx="11" ry="11"/><circle style="fill:#fff;fill-opacity:1;fill-rule:nonzero;stroke:none" id="path3759-7" cx="41" cy="1041.362" r="9"/></g></g></g><path id="path10839-9-8-2-2-5" d="m 1043.0028,337 0.75,0 c 0.01,-9e-5 0.016,-3.5e-4 0.023,0 0.1912,0.008 0.3824,0.0964 0.5156,0.23437 l 1.711,1.71094 1.7343,-1.71094 c 0.1993,-0.17287 0.335,-0.22912 0.5157,-0.23437 l 0.75,0 0,0.75 c 0,0.21485 -0.026,0.41298 -0.1875,0.5625 l -1.711,1.71093 1.6875,1.6875 c 0.1412,0.14113 0.211,0.34009 0.211,0.53907 l 0,0.75 -0.75,0 c -0.199,-10e-6 -0.398,-0.0698 -0.5391,-0.21094 l -1.7109,-1.71094 -1.711,1.71094 c -0.1411,0.14114 -0.3401,0.21094 -0.539,0.21094 l -0.75,0 0,-0.75 c 0,-0.19897 0.07,-0.39794 0.2109,-0.53907 l 1.7109,-1.6875 -1.7109,-1.71093 c -0.1581,-0.14598 -0.2274,-0.35194 -0.2109,-0.5625 l 0,-0.75 z" style="color:#bebebe;font-style:normal;font-variant:normal;font-weight:400;font-stretch:normal;font-size:medium;line-height:normal;font-family:'Andale Mono';-inkscape-font-specification:'Andale Mono';text-indent:0;text-align:start;text-decoration:none;text-decoration-line:none;letter-spacing:normal;word-spacing:normal;text-transform:none;direction:ltr;block-progression:tb;writing-mode:lr-tb;text-anchor:start;display:inline;overflow:visible;visibility:visible;opacity:.6;fill:#5c5c5c;fill-opacity:1;fill-rule:nonzero;stroke:none;stroke-width:1.78124988;marker:none;enable-background:new"/></g></g></svg>